<svg id="Draw_Layer" data-name="Draw Layer" xmlns="http://www.w3.org/2000/svg" viewBox="0 0 758.97 721.6"><defs><style>.cls-1{fill:#e3ecf6;}</style></defs><title>signature</title><path class="cls-1" d="M1129.66,750.48c-7.91,1.18-15.45,3.86-22.9,6.67a106.94,106.94,0,0,0-24.65,12.92A135.63,135.63,0,0,0,1061,788.74a130.14,130.14,0,0,0-9.6,12.11,91.76,91.76,0,0,0-6.61,10.1,200.49,200.49,0,0,0-11.91,26.66,118.87,118.87,0,0,0-5.48,22.49,98.65,98.65,0,0,0-1.57,16.09q.12,6.31.52,12.62a214.26,214.26,0,0,0,3.16,27.57c1.46,7.65,4.42,14.82,7.28,22a120.33,120.33,0,0,0,5.38,12.21,105.88,105.88,0,0,0,14,19.28,109.74,109.74,0,0,0,8.92,7.65,55,55,0,0,0,9.75,6,101.16,101.16,0,0,0,11.53,5,40.1,40.1,0,0,0,11.21,1.74c5.7.24,10.18-3.14,14.53-6.33a0,0,0,0,0,0,0,60.78,60.78,0,0,1-7.85,2,20.89,20.89,0,0,1-4.33,0,36.1,36.1,0,0,1-4.4-1.48,42.76,42.76,0,0,1-7.52-4.45,93.74,93.74,0,0,1-10.7-10.48,73.37,73.37,0,0,1-7.5-12.66c-4.18-10.82-6.33-22.2-8-33.65-.4-3.48-.79-7-.93-10.48-.19-4.7-.3-9.39-.38-14.09a212,212,0,0,1,.67-23.91,137.83,137.83,0,0,1,3.14-14.17c.84-3,1.77-6,2.75-8.91.58-1.74,1.26-3.44,2-5.13,2-4.5,4.13-8.92,6.59-13.21,1.62-2.82,3.34-5.5,5.14-8.21.62-.92,1.28-1.82,2-2.71l4.23-4.94c1.42-1.67,3.09-3.16,4.62-4.73a93.1,93.1,0,0,1,7.85-6.82c3.16-2.31,6.38-4.47,9.74-6.51a81.59,81.59,0,0,1,9-4.57c3.55-1.35,7.09-2.66,10.73-3.75,2.51-.75,5-1.42,7.53-2,.85-.19,1.7-.35,2.56-.49a93.76,93.76,0,0,1,10.82-.8c4.08,0,8.13.16,12.18.52a59.1,59.1,0,0,1,9.48,2.76,61.18,61.18,0,0,1,22.62,17.28c1.58,1.86,3.15,3.73,4.72,5.59a217.22,217.22,0,0,1,19.92,30.69c3.39,6.56,6.6,13.2,9.9,19.81,2.5,5,4.71,10.21,6.92,15.38,5.93,15.21,11.49,30.55,16.51,46.09,2.34,7.25,4.16,14.7,5.86,22.13.45,1.95.9,3.9,1.33,5.86l-.08.06c-6.42,5.08-12.79,10.22-18.92,15.64q-9.75,8.63-19.41,17.31c-11.82,10.65-23.1,21.89-34.2,33.28-10.87,11.13-21.35,22.72-31.22,34.75-5.4,6.56-10.78,13.12-16,19.81-3,3.87-6.19,7.67-9.09,11.65l-8.82,12.09c-1.88,2.58-3.62,5.22-5.37,7.88-2.24,3.41-4.63,6.76-6.74,10.25-4.13,6.84-8.33,13.63-12.28,20.57q-6.71,11.76-13.11,23.66c-3.89,7.23-7.32,14.67-10.85,22.08-1.63,3.43-3,7-4.47,10.48-1.79,4.22-3.66,8.41-5.32,12.68l-5.64,14.54c-1.34,3.45-2.4,7-3.58,10.53-5,14.88-9.45,30-13.55,45.12-4.19,15.48-8.26,31-11.5,46.75l-2.76,13.39c-.91,4.42-1.55,8.92-2.32,13.37-.64,3.67-1.11,7.37-1.63,11-1.24,8.72-2.45,17.45-2.91,26.26a141,141,0,0,0,.14,16.83,125,125,0,0,0,3.09,21.09,60.18,60.18,0,0,0,2.31,7.19,83.83,83.83,0,0,0,4.71,10.46,58.2,58.2,0,0,0,6.75,9.48,40.74,40.74,0,0,0,5.87,5.65,55.77,55.77,0,0,0,9.5,6.38,57.4,57.4,0,0,0,10.69,4.1,59.71,59.71,0,0,0,11.37,1.63,47.86,47.86,0,0,0,9.11-.37,119.06,119.06,0,0,0,20-3.91,147.23,147.23,0,0,0,18.72-7.2c11.24-5.06,21.22-12.36,30.7-20.15a120.86,120.86,0,0,0,9.06-8.16c5.51-5.55,11-11.12,16.18-17l9-10.22c3-3.37,5.66-7,8.47-10.55s5.55-7.19,8.25-10.86c2.15-2.93,4.38-5.82,6.43-8.83l8.59-12.61c2-3,3.84-6.14,5.73-9.22,1.79-2.92,3.64-5.81,5.26-8.83l7.16-13.39c1.74-3.27,3.19-6.72,4.77-10.07,1.41-3,2.88-6,4.2-9.07,3.8-8.88,7.62-17.74,11.22-26.7,1.45-3.59,3-7.16,4.34-10.81,1.66-4.71,3.31-9.4,5-14.11,2.65-7.52,5-15.15,7.4-22.74,1.16-3.62,2.08-7.33,3.11-11,.91-3.24,1.87-6.47,2.71-9.73,2.1-8.17,4.26-16.32,6.07-24.57,1.92-8.7,3.7-17.39,5.39-26.14,1.51-7.81,2.6-15.7,3.8-23.57,2.62-17.15,4-34.43,4.93-51.75.85-15.61,1.23-31.24.93-46.87-.32-16.12-1-32.2-2.57-48.25-.4-4-.69-8.06-1.22-12.06L1294.66,967c1.82-1.19,3.64-2.37,5.48-3.53,4.39-2.8,8.84-5.6,13.45-8,2.68-1.41,5.34-3,8.09-4.23l7.11-3.29,5-2c2.13-.84,4.38-1.44,6.57-2.14a114.69,114.69,0,0,1,13.32-3.19c1.6-.18,3.19-.31,4.8-.35.29.9.53,1.8.75,2.73a38.23,38.23,0,0,1-.07,5.66c-.09,1.09-.21,2.17-.34,3.25-.28,1.82-.58,3.63-.94,5.44a20.65,20.65,0,0,0-6.19,10.21c-.29,1.25-.62,2.5-.81,3.78-.26,2-.53,3.92-.79,5.87a21.92,21.92,0,0,0,3,11.15,22.65,22.65,0,0,0,13.2,10.15,22.1,22.1,0,0,0,17.42-2.12,21.34,21.34,0,0,0,5.88-5l-.34.44.89-1.11c.1-.14.21-.27.32-.41,1.76-2.23,3.48-4.49,5.21-6.76a230.43,230.43,0,0,1,15.1-17.5,19.27,19.27,0,0,0,1.36,2.78,20.63,20.63,0,0,0,28.26,7.41,21.21,21.21,0,0,0,3.84-2.89,24,24,0,0,0,8.86,9.93,20.79,20.79,0,0,0,10.61,2.87c3.67-.2,8.16-.62,11.29-2.91a30.9,30.9,0,0,0,5.48-4.43c.32-.37.64-.74,1-1.12-4.09,8.57-8.06,17.21-12,25.86q-4.57,10-9,20.15c-3.84,8.74-7.76,17.43-11.39,26.25-6.45,15.62-12.78,31.27-18.59,47.15-2.64,7.2-5.39,14.39-7.75,21.69-2.47,7.65-5.09,15.27-7.29,23s-4.3,15.66-6.46,23.48-4.29,15.38-6.27,23.12c-4,15.69-8,31.45-10.43,47.46-1,6.27-2.21,12.6-2.8,18.91l-1.29,13.77c-.36,3.84-.45,7.73-.66,11.58a80.93,80.93,0,0,0,.12,12.26c.7,7.42,1.85,14.83,4.55,21.8a72.81,72.81,0,0,0,5.4,11.52,50.74,50.74,0,0,0,7.72,9.75,46.81,46.81,0,0,0,21.78,12.05,64.6,64.6,0,0,0,8.56,1.21,30.31,30.31,0,0,0,3.69.09,71.8,71.8,0,0,0,8.73-1.08c1.29-.21,2.55-.46,3.81-.75a51.5,51.5,0,0,0,7.58-2.44,136.33,136.33,0,0,0,12.85-5.84,113.24,113.24,0,0,0,13.52-8.56,214.91,214.91,0,0,0,16.8-13.44,211.9,211.9,0,0,0,18.51-18.68c5.53-6.31,11.1-12.54,16.32-19.1l8.89-11.19c3.34-4.19,6.4-8.58,9.51-12.94,2.56-3.58,5.19-7.11,7.64-10.76a291.46,291.46,0,0,0,17.64-29.79c5.36-10.5,9.9-21.35,14.6-32.16,7-16.08,13.22-32.47,19.27-48.92,2.82-7.65,5.35-15.36,7.9-23.1,2.61-7.9,4.74-15.91,7-23.94.86-3.11,1.57-6.27,2.32-9.41.85-3.63,1.84-7.25,2.52-10.92q1.29-6.9,2.59-13.8c.57-3.06.83-6.31,1.2-9.43.33-2.73.65-5.46,1-8.19.46-3.9.54-7.88.8-11.81.09-1.57.07-3.15.09-4.71,0-2,.17-4,.11-6-.11-3.88-.19-7.75-.48-11.61l1.51-.4a129.48,129.48,0,0,0,19.61-7.59c14.17-6.46,26.87-15.43,39.55-24.34a232.12,232.12,0,0,0,23-19,134,134,0,0,0,12.57-13.41,155.26,155.26,0,0,0,10.22-13.74,105.71,105.71,0,0,0,6.5-10.94c3.39-6.75,6.68-13.56,9.58-20.53,5.08-12.22,9.18-24.78,14.12-37,.47-1.12.94-2.24,1.44-3.35,0,0,0,0,0,0-10,7-19.06,15.28-28,23.59q-7.51,7-15,14.13c-2.89,2.75-5.72,5.55-8.66,8.25q-9.7,8.94-20,17.07c-7.48,5.69-15.11,11.17-22.53,17-4.94,3.6-9.76,7.37-14.62,11.07A180.21,180.21,0,0,1,1635,962c-1,.38-2,.74-2.93,1.09a22.73,22.73,0,0,0-6.8-6.8,17.86,17.86,0,0,0-15.51-2.18l-4.13,1.74a31.16,31.16,0,0,0-4.17,3.32,21.47,21.47,0,0,0-4.41,6.21,26.15,26.15,0,0,0-2.87,11.91,37.13,37.13,0,0,0,.85,6.45,19.32,19.32,0,0,0,2.23,5.86,38.67,38.67,0,0,0,3.82,4.91c.14,3,.26,6,.22,9-.07,5.21-.22,10.37-.49,15.57-.24,4.42-.7,8.83-1.13,13.24l-1.23,8.56c-.18,1.28-.52,2.55-.79,3.82l-1.83,8.72c-.72,3.42-1.63,6.79-2.49,10.17s-1.67,6.86-2.65,10.24c-2.28,7.78-4.4,15.61-7,23.28s-5.18,15.4-8.07,23c-2.48,6.53-4.83,13.13-7.49,19.59s-5.2,12.65-7.79,19q-3.24,7.26-6.5,14.51c-3.72,8.3-7.65,16.44-12,24.44a247.91,247.91,0,0,1-18.4,28.7l-9.06,12.21c-4.69,5.73-9.31,11.54-14.31,17q-5.49,6-11,12a197.87,197.87,0,0,1-21.83,20.4,120.86,120.86,0,0,1-20.1,12.22,54.73,54.73,0,0,1-7,2c-.29,0-.59,0-.89,0-.33-.56-.65-1.14-1-1.72a53.14,53.14,0,0,1-1.75-6.81q-.27-3.26-.23-6.55c0-2.37.3-4.73.48-7.09.27-3.35.55-6.69.82-10,.3-3.83.76-7.64,1.2-11.45,1.16-7,2.34-14.07,3.72-21.07,1.68-8.54,3.65-17,5.63-25.45,3.64-15.54,8-30.92,11.79-46.42a847.53,847.53,0,0,1,27.89-90c9-24.27,18.68-48.27,28.47-72.23,2.56-5.93,5.08-11.9,7.81-17.76,3.46-7.45,6.9-14.91,10.44-22.33,7.45-15.61,15.12-31.09,22.89-46.53,6.8-13.5,14-26.8,21.39-40,8.32-14.74,16.57-29.5,25.85-43.67q2.43-3.71,5-7.33l3-4.35c.84-1.07,1.68-2.12,2.56-3.16a51.13,51.13,0,0,0,3.6-3.91l2.92-3.77a18.65,18.65,0,0,0-16.1-28.06c-4.69,0-10,1.88-13.19,5.46-3,2.89-6.22,5.53-9.3,8.34-2.76,2.52-5.51,5.06-8.22,7.63-6.09,5.78-12.19,11.53-18.18,17.42q-17.05,16.77-32.7,34.87c-10.6,12.2-20.89,24.64-31.19,37.09-5.1,6.18-10,12.5-14.95,18.84q-1.9,2.43-3.79,4.88a25,25,0,0,0-3.17-2.31,18.4,18.4,0,0,0-5.54-2.46,27.16,27.16,0,0,0-7.43-1.23,42.24,42.24,0,0,0-7.65.81c-3.63.64-7,2.35-10.33,3.93-.25-.15-.49-.28-.71-.39a28,28,0,0,0-6.65-2.57,43.05,43.05,0,0,0-7.45-.87,51.81,51.81,0,0,0-7.58.94l-1.44.24c-.89.14-1.77.33-2.65.52a45.52,45.52,0,0,0-6.58,1.93,57.46,57.46,0,0,0-10,4.7c-1.59,1-3.17,2.14-4.71,3.33-.12-.29-.25-.57-.36-.85a32.29,32.29,0,0,0-2.35-4.52,47,47,0,0,0-4.52-5.82,28,28,0,0,0-5.51-4.25,33.39,33.39,0,0,0-6.38-2.83,24.37,24.37,0,0,0-3.27-.8,36.72,36.72,0,0,0-11.1-.57,87,87,0,0,0-9.77,1.66,179,179,0,0,0-47.83,19.39q-6.45,3.7-12.72,7.77c-1.11-5.14-2.33-10.26-3.79-15.3-2.37-8.13-4.81-16.22-7.45-24.27q-3.89-11.84-8-23.56c-1.24-3.5-2.65-7-4-10.4-2.09-5.16-4.2-10.31-6.4-15.42q-2.51-5.8-5-11.62c-.64-1.5-1.36-3-2-4.43-.86-1.83-1.61-3.75-2.58-5.53-3.92-7.25-7.92-14.37-12.4-21.29-2.19-3.38-4.54-6.62-6.88-9.89-1.88-2.63-4-5.15-6-7.69s-4.27-5.21-6.61-7.67a105.22,105.22,0,0,0-14.59-12.12,72.53,72.53,0,0,0-14.21-7.89c-5.7-2.42-11.3-4.73-17.44-5.76a135.36,135.36,0,0,0-13.76-1.43c-1.72-.11-3.44-.16-5.16-.16a151.68,151.68,0,0,0-22.41,2.06Zm-44.87,69.25-2.06,2.67c.68-.9,1.37-1.78,2.06-2.67Zm83.6,266.94q8.49-10.47,17.22-20.72,14.85-17.4,31.15-33.53c9.17-9.07,18.45-18,28.11-26.52q9.95-8.79,20.16-17.22c1.55,13.46,3,27,3.34,40.51.24,8.13.49,16.25.53,24.39,0,8.73-.13,17.43-.33,26.16s-.7,17.54-1.31,26.29c-.31,4.48-.51,9-1,13.44q-.88,7.69-1.78,15.37c-.91,6.53-1.75,13.07-3,19.56-1.62,8.7-3.29,17.35-5.14,26-1.8,8.45-3.89,16.81-6,25.2-.77,3.07-1.64,6.12-2.49,9.18-1.12,4-2.11,8.13-3.37,12.12-2.89,9.23-5.77,18.44-8.93,27.57-1.42,4.11-2.75,8.25-4.38,12.28q-2.81,6.91-5.59,13.82c-2.47,5.73-4.86,11.52-7.57,17.15l-6.41,13.34c-1.33,2.77-2.86,5.43-4.35,8.12-1.75,3.16-3.34,6.5-5.29,9.55l-7.67,12c-3.8,5.94-8,11.59-12.1,17.34l2-2.63c-3.57,4.64-7,9.39-10.82,13.86-4.63,5.45-9.23,10.88-14.11,16.11-2.15,2.31-4.24,4.71-6.5,6.93l-8.52,8.38c-4.25,4.18-8.84,7.94-13.45,11.7a125.64,125.64,0,0,1-22.21,13.19,102.6,102.6,0,0,1-20.24,5.53,67.5,67.5,0,0,1-11.72.3,17.11,17.11,0,0,1-8.15-3.34,42.77,42.77,0,0,1-3.07-3.1,54.28,54.28,0,0,1-3.49-6.12,84.55,84.55,0,0,1-4-15.68c-2.06-19.4.25-38.9,2.71-58.18,1.26-7.72,2.54-15.43,4-23.12,1.5-7.87,3.21-15.69,4.93-23.51,1.68-7.64,3.69-15.23,5.67-22.8,2.28-8.72,4.69-17.38,7.14-26s5.22-17.17,8.32-25.57c1.58-4.31,3.09-8.66,4.83-12.91s3.41-8.35,5.12-12.53c3-6.52,5.84-13.1,9.15-19.46,4.13-8,8.31-15.87,12.64-23.72,4.15-7.5,8.49-14.86,12.83-22.24,1.77-3,3.73-5.89,5.61-8.83s3.68-6,5.72-8.78l10-13.87c3.88-5,7.74-10,11.72-15Z" transform="translate(-1019.22 -748.42)"/></svg>